<svg width="400" height="300" viewBox="0 0 400 300" xmlns="http://www.w3.org/2000/svg">
  <!-- Eagle flying northeast -->
  <g transform="rotate(35 200 150)">
    <!-- Body -->
    <ellipse cx="200" cy="150" rx="15" ry="40" fill="currentColor" opacity="0.9"/>
    
    <!-- Head -->
    <circle cx="200" cy="120" r="12" fill="currentColor"/>
    
    <!-- Beak -->
    <polygon points="200,115 205,110 202,118" fill="currentColor"/>
    
    <!-- Eye -->
    <circle cx="198" cy="118" r="2" fill="white"/>
    <circle cx="198" cy="118" r="1" fill="black"/>
    
    <!-- Left Wing (larger, spread) -->
    <path d="M 185 135 Q 140 120 120 110 Q 110 115 115 125 Q 130 140 155 150 Q 175 155 185 150 Z" 
          fill="currentColor" opacity="0.8"/>
    
    <!-- Left Wing Secondary Feathers -->
    <path d="M 140 120 Q 125 115 115 112 Q 110 116 118 122 Q 130 130 140 135" 
          fill="currentColor" opacity="0.6"/>
    
    <!-- Right Wing (larger, spread) -->
    <path d="M 215 135 Q 260 120 280 110 Q 290 115 285 125 Q 270 140 245 150 Q 225 155 215 150 Z" 
          fill="currentColor" opacity="0.8"/>
    
    <!-- Right Wing Secondary Feathers -->
    <path d="M 260 120 Q 275 115 285 112 Q 290 116 282 122 Q 270 130 260 135" 
          fill="currentColor" opacity="0.6"/>
    
    <!-- Tail Feathers -->
    <path d="M 195 170 Q 185 190 180 200 Q 185 205 195 195 Q 200 185 205 175 Q 210 185 215 195 Q 220 205 215 200 Q 210 190 205 175 Q 200 180 195 170 Z" 
          fill="currentColor" opacity="0.7"/>
    
    <!-- Wing Details - Left -->
    <path d="M 165 140 Q 145 135 130 130" stroke="currentColor" stroke-width="1" fill="none" opacity="0.5"/>
    <path d="M 160 145 Q 140 140 125 135" stroke="currentColor" stroke-width="1" fill="none" opacity="0.5"/>
    <path d="M 155 150 Q 135 145 120 140" stroke="currentColor" stroke-width="1" fill="none" opacity="0.5"/>
    
    <!-- Wing Details - Right -->
    <path d="M 235 140 Q 255 135 270 130" stroke="currentColor" stroke-width="1" fill="none" opacity="0.5"/>
    <path d="M 240 145 Q 260 140 275 135" stroke="currentColor" stroke-width="1" fill="none" opacity="0.5"/>
    <path d="M 245 150 Q 265 145 280 140" stroke="currentColor" stroke-width="1" fill="none" opacity="0.5"/>
    
    <!-- Legs (tucked up) -->
    <ellipse cx="195" cy="165" rx="2" ry="8" fill="currentColor" opacity="0.6"/>
    <ellipse cx="205" cy="165" rx="2" ry="8" fill="currentColor" opacity="0.6"/>
  </g>
  
  <!-- Motion lines (optional - can be removed) -->
  <g opacity="0.3">
    <path d="M 50 80 Q 80 85 110 90" stroke="currentColor" stroke-width="1" fill="none"/>
    <path d="M 45 90 Q 75 95 105 100" stroke="currentColor" stroke-width="1" fill="none"/>
    <path d="M 40 100 Q 70 105 100 110" stroke="currentColor" stroke-width="1" fill="none"/>
  </g>
</svg>
